<?xml version="1.0" encoding="UTF-8" standalone="no"?>
<!-- Created with Inkscape (http://www.inkscape.org/) -->

<svg
   xmlns:dc="http://purl.org/dc/elements/1.1/"
   xmlns:cc="http://creativecommons.org/ns#"
   xmlns:rdf="http://www.w3.org/1999/02/22-rdf-syntax-ns#"
   xmlns:svg="http://www.w3.org/2000/svg"
   xmlns="http://www.w3.org/2000/svg"
   version="1.2"
   width="744"
   height="1050"
   id="svg3905">
  <defs
     id="defs3907">
    <marker
       refX="0"
       refY="0"
       orient="auto"
       id="EmptyTriangleOutL"
       style="overflow:visible">
      <path
         d="M 5.77,0 -2.88,5 V -5 l 8.65,5 z"
         transform="matrix(0.8,0,0,0.8,-4.8,0)"
         id="path5182"
         style="fill:#ffffff;fill-rule:evenodd;stroke:#000000;stroke-width:1pt" />
    </marker>
  </defs>
  <metadata
     id="metadata3910">
    <rdf:RDF>
      <cc:Work
         rdf:about="">
        <dc:format>image/svg+xml</dc:format>
        <dc:type
           rdf:resource="http://purl.org/dc/dcmitype/StillImage" />
        <dc:title></dc:title>
      </cc:Work>
    </rdf:RDF>
  </metadata>
  <g
     transform="matrix(0.58,0,0,0.58,153,515)"
     id="needle01">
    <path
       d="M 26,139 A 12.3,12.3 0 1 1 1.4,139 12.3,12.3 0 1 1 26,139 z"
       transform="matrix(1.17,0,0,1.17,-0.987,-148)"
       id="path3097"
       style="fill-rule:evenodd" />
    <rect
       width="9.6599998"
       height="99.699997"
       x="10.2"
       y="28.200001"
       id="rect3867"
       style="fill-rule:evenodd;stroke:#000000;stroke-width:0.336px" />
    <path
       d="m 10.6,128 4.4,22 4.41,-21 z"
       id="path3875"
       style="stroke:#000000;stroke-width:1px" />
  </g>
  <g
     transform="matrix(0.58,0,0,0.58,404,516)"
     id="needle02">
    <path
       d="M 26,139 A 12.3,12.3 0 1 1 1.4,139 12.3,12.3 0 1 1 26,139 z"
       transform="matrix(1.17,0,0,1.17,-0.987,-148)"
       id="path3097-3"
       style="fill-rule:evenodd" />
    <rect
       width="9.6599998"
       height="99.699997"
       x="10.2"
       y="28.200001"
       id="rect3867-7"
       style="fill-rule:evenodd;stroke:#000000;stroke-width:0.336px" />
    <path
       d="m 10.6,128 4.4,22 4.41,-21 z"
       id="path3875-0"
       style="stroke:#000000;stroke-width:1px" />
  </g>
  <g
     id="needle03">
    <path
       d="m 615.07114,132.4854 a 8.34678,8.34678 0 0 1 -16.69356,0 8.34678,8.34678 0 1 1 16.69356,0 z"
       id="path3097-8"
       style="fill-rule:evenodd" />
    <rect
       width="5.6027999"
       height="57.825996"
       x="603.91602"
       y="140.356"
       id="rect3867-72"
       style="fill-rule:evenodd;stroke:#000000;stroke-width:0.19487999px" />
    <path
       d="M 604.148,198.24 606.7,211 609.2578,198.82 z"
       id="path3875-8"
       style="stroke:#000000;stroke-width:0.57999998px" />
  </g>
  <rect
     width="511"
     height="15.7"
     x="40"
     y="354"
     id="rect4872"
     style="fill:#008000" />
  <rect
     width="154"
     height="233"
     x="549"
     y="342"
     id="rect4884"
     style="fill:#008000" />
  <path
     d="m 179,361 a 20.7,23.2 0 0 1 -41.4,0 20.7,23.2 0 1 1 41.4,0 z"
     id="path4886"
     style="fill:#008000;stroke:#000000" />
  <flowRoot
     transform="translate(-70.7,39.3)"
     id="flowRoot4892"
     xml:space="preserve"
     style="font-size:40px;line-height:125%;letter-spacing:0px;word-spacing:0px;fill:#000000;font-family:Sans"><flowRegion
       id="flowRegion4894"><rect
         width="148"
         height="97.900002"
         x="212"
         y="297"
         id="rect4896" /></flowRegion><flowPara
       id="flowPara4898">M</flowPara></flowRoot>  <text
     x="149.28572"
     y="674.505"
     id="text4900"
     xml:space="preserve"
     style="font-size:40px;line-height:125%;letter-spacing:0px;word-spacing:0px;fill:#000000;font-family:Sans"><tspan
       x="149.28572"
       y="674.505"
       id="tspan4902">A</tspan></text>
  <path
     d="M 411,411 V 368.1"
     id="path4910"
     style="fill:none;stroke:#000000;stroke-width:3" />
  <text
     x="397.04242"
     y="672.65656"
     id="text4900-2"
     xml:space="preserve"
     style="font-size:40px;line-height:125%;letter-spacing:0px;word-spacing:0px;fill:#000000;font-family:Sans"><tspan
       x="397.04242"
       y="672.65656"
       id="tspan4902-4">F</tspan></text>
  <rect
     width="12.9"
     height="87.099998"
     x="659"
     y="572"
     id="rect4965"
     style="fill:#008000" />
  <rect
     width="12.9"
     height="87.099998"
     x="660"
     y="717"
     id="rect4965-2"
     style="fill:#008000" />
  <path
     d="m 685,660 c -32.8,56.9 -38.2,62.1 -38.2,62.1 l 40,-0.357 -40,-61.8 z"
     id="path4963"
     style="fill:#008000;stroke:#000000;stroke-width:1px" />
  <text
     x="596.26672"
     y="281.228"
     id="text4900-2-9"
     xml:space="preserve"
     style="font-size:40px;line-height:125%;letter-spacing:0px;word-spacing:0px;fill:#000000;font-family:Sans"><tspan
       x="596.26672"
       y="281.228"
       id="tspan5006">L</tspan></text>
  <g
     id="pb03">
    <rect
       width="43.900002"
       height="47"
       x="269.68124"
       y="197.77188"
       id="lp04-1-2-0"
       style="fill:#ffffff;stroke:#000000;stroke-width:2;stroke-linejoin:round" />
    <path
       d="m 269.78125,244.77187 6.63,7.01 43.7,-0.234 -6.54,-7.08999 -43.8,0.253"
       id="path4757-0"
       style="fill:#b6b6b6;stroke:#000000;stroke-width:2;stroke-linejoin:round" />
    <path
       d="m 313.78125,244.77187 -0.179,-47.1 6.43,6.83 0.0893,47.10001 z"
       id="path4759-8"
       style="fill:#cccccc;stroke:#000000;stroke-width:2;stroke-linejoin:round" />
    <text
       x="279.35269"
       y="236.39119"
       id="text5012"
       xml:space="preserve"
       style="font-size:40px;line-height:125%;letter-spacing:0px;word-spacing:0px;fill:#000000;font-family:Sans"><tspan
         x="279.35269"
         y="236.39119"
         id="tspan5014">S</tspan></text>
  </g>
  <g
     id="pb02">
    <rect
       width="43.900002"
       height="47"
       x="185.60001"
       y="198.14"
       id="lp04-1-2"
       style="fill:#ffffff;stroke:#000000;stroke-width:2;stroke-linejoin:round" />
    <path
       d="m 185.7,245.14 6.63,7.01 43.7,-0.234 -6.54,-7.09 -43.8,0.253"
       id="path4757"
       style="fill:#b6b6b6;stroke:#000000;stroke-width:2;stroke-linejoin:round" />
    <path
       d="m 229.7,245.14 -0.179,-47.1 6.43,6.83 0.0893,47.1 z"
       id="path4759"
       style="fill:#cccccc;stroke:#000000;stroke-width:2;stroke-linejoin:round" />
    <path
       d="m 208,234.24 -0.003,-25 v -1.33"
       id="path5016"
       style="fill:none;stroke:#000000;stroke-width:2.36999989px;marker-end:url(#EmptyTriangleOutL)" />
  </g>
  <g
     id="pb01">
    <rect
       width="43.900002"
       height="47"
       x="88.800003"
       y="198.92999"
       id="lp04-1-2-9"
       style="fill:#ffffff;stroke:#000000;stroke-width:2;stroke-linejoin:round" />
    <path
       d="m 88.9,245.93 6.63,7.01 43.7,-0.234 -6.54,-7.09 -43.8,0.253"
       id="path4757-3"
       style="fill:#b6b6b6;stroke:#000000;stroke-width:2;stroke-linejoin:round" />
    <path
       d="m 132.9,245.93 -0.179,-47.1 6.43,6.83 0.0893,47.1 z"
       id="path4759-45"
       style="fill:#cccccc;stroke:#000000;stroke-width:2;stroke-linejoin:round" />
    <path
       d="m 110.9,209.03 0.003,25 v 1.33"
       id="path5016-7"
       style="fill:none;stroke:#000000;stroke-width:2.36999989px;marker-end:url(#EmptyTriangleOutL)" />
  </g>
  <g
     id="pb05">
    <rect
       width="43.900002"
       height="47"
       x="570.90002"
       y="633"
       id="lp04-1-2-4"
       style="fill:#ffffff;stroke:#000000;stroke-width:2;stroke-linejoin:round" />
    <path
       d="m 571,680 6.63,7.01 43.7,-0.234 -6.54,-7.09 -43.8,0.253"
       id="path4757-4"
       style="fill:#b6b6b6;stroke:#000000;stroke-width:2;stroke-linejoin:round" />
    <path
       d="m 615,680 -0.179,-47.1 6.43,6.83 0.0893,47.1 z"
       id="path4759-1"
       style="fill:#cccccc;stroke:#000000;stroke-width:2;stroke-linejoin:round" />
    <text
       x="576.42859"
       y="674.50507"
       id="text5672"
       xml:space="preserve"
       style="font-size:40px;line-height:125%;letter-spacing:0px;word-spacing:0px;fill:#000000;font-family:Sans"><tspan
         x="576.42859"
         y="674.50507"
         id="tspan5674">Ö</tspan></text>
  </g>
  <g
     id="pb04">
    <rect
       width="43.900002"
       height="47"
       x="496.89999"
       y="633"
       id="lp04-1-2-2"
       style="fill:#ffffff;stroke:#000000;stroke-width:2;stroke-linejoin:round" />
    <path
       d="m 497,680 6.63,7.01 43.7,-0.234 -6.54,-7.09 -43.8,0.253"
       id="path4757-5"
       style="fill:#b6b6b6;stroke:#000000;stroke-width:2;stroke-linejoin:round" />
    <path
       d="m 541,680 -0.179,-47.1 6.43,6.83 0.0893,47.1 z"
       id="path4759-4"
       style="fill:#cccccc;stroke:#000000;stroke-width:2;stroke-linejoin:round" />
    <text
       x="505.67102"
       y="670.49414"
       id="text5012-5"
       xml:space="preserve"
       style="font-size:40px;line-height:125%;letter-spacing:0px;word-spacing:0px;fill:#000000;font-family:Sans"><tspan
         x="505.67102"
         y="670.49414"
         id="tspan5014-1">S</tspan></text>
  </g>
</svg>
