<?xml version="1.0" encoding="UTF-8" standalone="no"?>
<!-- Created with Inkscape (http://www.inkscape.org/) -->

<svg
   xmlns:dc="http://purl.org/dc/elements/1.1/"
   xmlns:cc="http://creativecommons.org/ns#"
   xmlns:rdf="http://www.w3.org/1999/02/22-rdf-syntax-ns#"
   xmlns:svg="http://www.w3.org/2000/svg"
   xmlns="http://www.w3.org/2000/svg"
   version="1.1"
   width="744.09448"
   height="1052.3622"
   id="svg3905">
  <defs
     id="defs3907" />
  <metadata
     id="metadata3910">
    <rdf:RDF>
      <cc:Work
         rdf:about="">
        <dc:format>image/svg+xml</dc:format>
        <dc:type
           rdf:resource="http://purl.org/dc/dcmitype/StillImage" />
        <dc:title></dc:title>
      </cc:Work>
    </rdf:RDF>
  </metadata>
  <g
     transform="translate(123.18435,-517.82016)"
     id="meter01">
    <path
       d="m 234.1301,621.02722 a 87.659137,87.659137 0 0 1 -175.318271,0 87.659137,87.659137 0 1 1 175.318271,0 z"
       id="path3969-9"
       style="fill:#ffffff;stroke:#000000;stroke-width:2.44629884" />
    <path
       d="m 142.16484,541.52236 c -0.23293,0.65024 -0.6609,1.21965 -1.28686,1.70732 -0.62597,0.48768 -1.19903,0.81913 -1.7328,0.99381 l 0,1.86021 c 1.01416,-0.33482 1.89014,-0.85566 2.63742,-1.55442 l 0,7.7084 2.05133,0 0,-10.71532 z m 8.25627,0 c -0.96079,10e-6 -1.76756,0.2489 -2.40808,0.73899 -0.64053,0.49011 -1.02539,1.29506 -1.1467,2.42082 l 2.03858,0.20386 c 0.0388,-0.59685 0.19361,-1.02967 0.44594,-1.28686 0.25233,-0.25717 0.59228,-0.38222 1.0193,-0.38223 0.43186,10e-6 0.76149,0.12445 1.00655,0.36949 0.24504,0.24506 0.36949,0.60139 0.36949,1.05752 0,0.41246 -0.13902,0.82647 -0.42046,1.24863 -0.20865,0.30572 -0.77261,0.88666 -1.69457,1.74554 -1.14519,1.06269 -1.91796,1.91802 -2.30615,2.56097 -0.3882,0.64296 -0.61038,1.32043 -0.68803,2.03859 l 7.16054,0 0,-1.89843 -4.05169,0 c 0.10675,-0.1844 0.23545,-0.37925 0.40772,-0.57336 0.17226,-0.19409 0.59051,-0.58018 1.23589,-1.17218 0.64537,-0.592 1.09034,-1.04789 1.33782,-1.36331 0.37364,-0.47553 0.64317,-0.929 0.81544,-1.3633 0.17225,-0.43429 0.25481,-0.89564 0.25482,-1.37605 -1e-5,-0.84432 -0.30292,-1.54728 -0.90462,-2.11503 -0.60172,-0.56773 -1.41881,-0.85365 -2.47179,-0.85366 z m -36.82196,8.12886 -1.43976,0.82818 c 0.12341,0.67959 0.0435,1.39246 -0.25482,2.12777 -0.29826,0.73533 -0.64438,1.31464 -1.01929,1.7328 l 0.9301,1.60539 c 0.71089,-0.79704 1.21842,-1.68412 1.5162,-2.6629 l 3.84783,6.67637 1.77102,-1.03204 z m 73.72037,2.57372 c -0.52683,0.44666 -1.18895,0.73157 -1.97488,0.84092 -0.78595,0.10935 -1.45076,0.10286 -2.00036,-0.0127 l -0.93011,1.60538 c 1.04571,0.21713 2.07407,0.20603 3.07062,-0.0255 l -3.86057,6.67637 1.77102,1.03203 5.36403,-9.2883 -1.43975,-0.82818 z m -80.90639,1.5799 -1.43975,0.82818 c 0.12341,0.67959 0.0434,1.39246 -0.25483,2.12777 -0.29826,0.73533 -0.64437,1.30189 -1.01929,1.72006 l 0.93011,1.60539 c 0.71088,-0.79704 1.21841,-1.68412 1.51619,-2.66291 l 3.84784,6.67637 1.77102,-1.01929 z m -23.379998,24.05531 c -0.148062,0.002 -0.295277,0.005 -0.433199,0.0255 -0.929901,0.13551 -1.649204,0.65933 -2.165998,1.55443 -0.516782,0.89511 -0.609191,1.77341 -0.267565,2.63742 0.415456,1.04672 1.496486,2.06616 3.236256,3.07062 1.773403,1.02387 3.157236,1.46373 4.166361,1.31234 1.009125,-0.1514 1.774194,-0.6806 2.29341,-1.57991 0.516785,-0.89509 0.60919,-1.7734 0.267564,-2.63742 -0.415456,-1.04671 -1.500815,-2.07404 -3.248997,-3.08336 -1.533335,-0.88526 -2.81139,-1.31466 -3.847832,-1.2996 z m 129.641348,1.72006 c -0.53362,-0.0137 -1.12377,0.12158 -1.77102,0.40772 l 0.84091,1.87295 c 0.53629,-0.26477 0.97619,-0.3575 1.32509,-0.26757 0.34888,0.0899 0.6274,0.31822 0.84091,0.68803 0.21595,0.374 0.28081,0.73551 0.19112,1.07025 -0.0897,0.33475 -0.33123,0.61286 -0.72625,0.84092 -0.35721,0.20623 -0.79328,0.28748 -1.29959,0.25482 -0.36909,-0.0278 -1.15232,-0.21709 -2.35712,-0.58609 -1.49291,-0.46041 -2.61276,-0.69879 -3.36367,-0.7135 -0.75091,-0.0147 -1.45426,0.11587 -2.11503,0.40771 l 3.58027,6.21769 1.64361,-0.95559 -2.02585,-3.51656 c 0.21306,2.5e-4 0.44654,0.0243 0.70077,0.0764 0.25422,0.0521 0.79548,0.20851 1.63086,0.47142 0.83538,0.26291 1.45058,0.42755 1.84747,0.48417 0.59865,0.0858 1.1304,0.0934 1.59265,0.0255 0.46223,-0.068 0.8963,-0.21849 1.31234,-0.45868 0.7312,-0.42217 1.19795,-1.04251 1.38879,-1.84747 0.19081,-0.80496 0.0168,-1.6618 -0.50965,-2.57372 -0.48041,-0.83206 -1.09004,-1.39765 -1.83473,-1.70731 -0.27926,-0.11613 -0.57171,-0.18293 -0.89188,-0.19112 z m -129.870688,0.19112 c 0.188459,0.003 0.411692,0.0444 0.675281,0.11467 0.468614,0.12487 1.247423,0.508 2.331633,1.13396 1.08421,0.62598 1.820727,1.13231 2.204222,1.5162 0.299623,0.29626 0.470139,0.56849 0.509646,0.81543 0.03951,0.24696 -0.0037,0.47371 -0.127411,0.68803 -0.123738,0.21432 -0.304822,0.35759 -0.535129,0.44594 -0.230316,0.0883 -0.576162,0.0739 -1.044776,-0.051 -0.468605,-0.12486 -1.247423,-0.49524 -2.331633,-1.12122 -1.084206,-0.62596 -1.816523,-1.12986 -2.204221,-1.5162 -0.299619,-0.29625 -0.470098,-0.56848 -0.509647,-0.81543 -0.03951,-0.24694 0.0037,-0.48644 0.127412,-0.70077 0.123742,-0.21431 0.302722,-0.35879 0.535129,-0.44594 0.0581,-0.0218 0.11825,-0.0424 0.191117,-0.051 0.05465,-0.006 0.115555,-0.0138 0.178377,-0.0127 z m -5.631595,5.31306 -0.828176,1.43975 c 0.446663,0.52684 0.71883,1.17621 0.828176,1.96214 0.109358,0.78595 0.102871,1.46351 -0.01272,2.01311 l 1.605387,0.91736 c 0.217126,-1.0457 0.21876,-2.06133 -0.01272,-3.05788 l 6.67637,3.86057 1.019293,-1.77102 -9.275567,-5.36403 z m -4.816181,32.3753 c -1.916716,10e-6 -3.291076,0.35088 -4.128136,1.04478 -0.837041,0.6939 -1.261364,1.58081 -1.261375,2.6629 1.1e-5,0.99476 0.331459,1.81609 0.993811,2.45904 0.662372,0.64296 1.529846,0.96834 2.611939,0.96833 1.038435,10e-6 1.887693,-0.30838 2.53549,-0.91736 0.64781,-0.60899 0.968333,-1.33926 0.968329,-2.17874 4e-6,-0.77154 -0.295025,-1.40955 -0.891882,-1.92392 1.222826,0.0825 2.032626,0.27736 2.420821,0.57336 0.3882,0.296 0.573353,0.64809 0.573353,1.07025 0,0.33483 -0.09895,0.61164 -0.293047,0.81544 -0.194094,0.2038 -0.489122,0.32097 -0.891882,0.36949 l 0.2166,1.98762 c 0.883152,-0.14557 1.556363,-0.47944 2.000363,-0.99381 0.444,-0.51436 0.662541,-1.19122 0.662541,-2.02584 0,-1.15974 -0.435858,-2.10551 -1.299599,-2.82854 -0.863737,-0.72301 -2.266627,-1.08299 -4.217326,-1.083 z m 145.733434,0.0255 c -0.8977,0.1019 -1.62313,0.47281 -2.17873,1.10848 -0.55561,0.63568 -0.82818,1.4297 -0.82818,2.39534 0,1.01902 0.32113,1.87678 0.98107,2.56098 0.65993,0.68419 1.45881,1.01928 2.39534,1.01929 0.64537,-1e-5 1.20021,-0.18151 1.65635,-0.54787 0.45613,-0.36637 0.74812,-0.85382 0.87914,-1.46523 0.55803,1.02386 1.30591,1.52893 2.24244,1.52894 0.65993,-10e-6 1.25969,-0.23919 1.78377,-0.73899 0.64051,-0.60657 0.95557,-1.41637 0.95559,-2.42082 -2e-5,-0.58716 -0.1105,-1.11953 -0.33128,-1.59265 -0.22079,-0.47312 -0.51886,-0.84402 -0.90462,-1.10848 -0.38578,-0.26446 -0.90905,-0.45508 -1.55442,-0.58609 l -0.31853,1.88569 c 0.46583,0.0534 0.81489,0.19846 1.05752,0.44594 0.24261,0.24747 0.36948,0.5425 0.36949,0.89188 -1e-5,0.35423 -0.10503,0.64015 -0.31853,0.85366 -0.21352,0.21351 -0.50732,0.31852 -0.8664,0.31853 -0.42217,-10e-6 -0.7518,-0.14206 -1.00655,-0.4332 -0.25476,-0.29116 -0.37131,-0.7082 -0.35675,-1.26138 l -1.66909,-0.22934 c 0.10189,0.36393 0.15288,0.68081 0.15289,0.94285 -1e-5,0.3979 -0.15783,0.72996 -0.45868,1.00655 -0.30086,0.27659 -0.7088,0.42045 -1.22315,0.42046 -0.54348,-10e-6 -0.9666,-0.14448 -1.28686,-0.4332 -0.32027,-0.28872 -0.48417,-0.6481 -0.48417,-1.07026 0,-0.39305 0.12809,-0.72996 0.39498,-1.00655 0.26689,-0.27659 0.65479,-0.44657 1.15945,-0.50965 z m -147.338819,2.26793 c 0.601713,0 1.052752,0.13841 1.363304,0.40772 0.310562,0.26932 0.458685,0.60076 0.458681,0.99381 4e-6,0.40761 -0.161472,0.74756 -0.484163,1.01929 -0.322684,0.27174 -0.827141,0.40772 -1.516198,0.40772 -0.679339,0 -1.166799,-0.11959 -1.465234,-0.36949 -0.298419,-0.2499 -0.445932,-0.56435 -0.445941,-0.94285 9e-6,-0.3979 0.183944,-0.75423 0.54787,-1.05752 0.363943,-0.30327 0.881752,-0.45868 1.541681,-0.45868 z m 13.25081,33.73859 c -0.53115,0.0232 -1.05947,0.18909 -1.592646,0.49691 -0.516884,0.29843 -0.892999,0.69002 -1.133964,1.18493 -0.240944,0.49492 -0.319413,1.063 -0.229341,1.69457 -0.409405,-0.30152 -0.84965,-0.46706 -1.312339,-0.4969 -0.462666,-0.0299 -0.909173,0.0711 -1.337823,0.31853 -0.689176,0.3979 -1.117426,0.97507 -1.286857,1.72005 -0.169411,0.74498 0.0024,1.55527 0.509646,2.43357 0.511942,0.88669 1.132765,1.44752 1.86021,1.66909 0.72747,0.22156 1.438594,0.13033 2.127775,-0.26757 0.403432,-0.23292 0.711923,-0.55226 0.930105,-0.95558 0.218116,-0.40333 0.287754,-0.89557 0.216599,-1.46524 0.535064,0.40268 1.082331,0.6178 1.643611,0.62432 0.561284,0.007 1.092572,-0.14447 1.592645,-0.4332 0.907713,-0.52406 1.42699,-1.26908 1.567163,-2.2297 0.118561,-0.81367 -0.06262,-1.63132 -0.54787,-2.47179 -0.521637,-0.90351 -1.20343,-1.47124 -2.051327,-1.70732 -0.317962,-0.0885 -0.636899,-0.1286 -0.955587,-0.11467 z m 126.698139,1.19767 -2.17874,3.78413 -1.86021,-1.07026 -0.99381,1.70732 1.86021,1.07026 -0.66254,1.15944 1.55442,0.89188 0.66254,-1.1467 5.86094,3.38915 0.8664,-1.49072 -3.55479,-7.40262 z m -126.315904,0.76447 c 0.106169,-10e-4 0.205554,0.004 0.305787,0.0255 0.400946,0.0879 0.706285,0.32242 0.917364,0.68802 0.215936,0.37401 0.25621,0.76444 0.127412,1.17219 -0.128786,0.40774 -0.429889,0.75059 -0.917364,1.03203 -0.348794,0.20136 -0.738547,0.28204 -1.159446,0.24208 -0.420886,-0.0399 -0.756642,-0.28066 -1.006552,-0.7135 -0.215927,-0.37401 -0.262072,-0.75133 -0.140153,-1.14671 0.121932,-0.39537 0.395335,-0.71842 0.828176,-0.96833 0.371912,-0.21473 0.726271,-0.32703 1.044776,-0.33128 z m 126.914734,1.79651 1.93666,3.94976 -3.15981,-1.83473 z m -131.055613,0.82817 c 0.08132,0.004 0.163067,0.0166 0.242082,0.0382 0.316079,0.0865 0.570376,0.30087 0.76447,0.63705 0.191672,0.33199 0.247904,0.65468 0.165635,0.96833 -0.08226,0.31364 -0.296793,0.56066 -0.649799,0.76447 -0.33198,0.19167 -0.662883,0.25089 -0.98107,0.16564 -0.318158,-0.0853 -0.580675,-0.29667 -0.777211,-0.63706 -0.189246,-0.32778 -0.237246,-0.65347 -0.152894,-0.96833 0.08438,-0.31485 0.292338,-0.56006 0.624317,-0.75173 0.264756,-0.15286 0.520496,-0.22702 0.76447,-0.2166 z m 32.311593,22.44993 c -0.46649,0.81769 -1.13124,1.65611 -2.00036,2.5355 -0.86911,0.87939 -1.83126,1.63329 -2.87951,2.25518 -1.04823,0.62189 -1.95538,1.03294 -2.73935,1.2359 l -0.75173,1.28685 6.0648,3.50382 0.94285,-1.65635 -4.02621,-2.31889 c 1.4362,-0.566 2.78702,-1.36765 4.05169,-2.40808 1.26467,-1.04044 2.29089,-2.19232 3.05788,-3.45286 z m 71.50341,0.20386 c -0.61127,0.009 -1.23314,0.20396 -1.87295,0.57336 -1.06739,0.61626 -1.66625,1.50068 -1.7965,2.6629 -0.0967,0.85148 0.0705,1.66019 0.50965,2.42082 0.52649,0.9119 1.22601,1.48942 2.10229,1.74554 0.87628,0.2561 1.71142,0.16065 2.49727,-0.29305 0.41183,-0.23778 0.76378,-0.56824 1.04477,-0.99381 l 0.62432,1.7328 -3.33819,1.92392 0.95559,1.65635 4.68875,-2.70113 -1.87295,-5.33855 -1.55442,0.62432 c -0.14382,0.68257 -0.47258,1.17166 -0.98107,1.46523 -0.40763,0.23535 -0.81788,0.28976 -1.2359,0.1529 -0.41801,-0.13688 -0.79368,-0.49021 -1.12122,-1.05752 -0.34938,-0.60514 -0.49058,-1.13143 -0.40772,-1.5799 0.0829,-0.44847 0.31822,-0.7803 0.68803,-0.99381 0.32358,-0.18682 0.67492,-0.24298 1.05751,-0.1529 0.3826,0.0901 0.71289,0.33066 0.99381,0.70077 l 1.65636,-1.21041 c -0.55149,-0.71259 -1.22348,-1.13937 -2.02585,-1.28686 -0.20059,-0.0369 -0.40781,-0.0541 -0.61158,-0.051 z m -37.72658,8.90608 c -1.00446,0 -1.81852,0.32113 -2.45905,0.98107 -0.64051,0.65993 -0.96832,1.54561 -0.96833,2.63742 1e-5,1.02872 0.30839,1.85977 0.91737,2.51001 0.60899,0.65022 1.33745,0.98106 2.19148,0.98107 0.75699,-10e-6 1.38892,-0.30292 1.89843,-0.90463 -0.0776,1.22767 -0.26218,2.03262 -0.56061,2.42083 -0.29842,0.38818 -0.66387,0.58608 -1.09574,0.58609 -0.32511,-1e-5 -0.58615,-0.099 -0.78995,-0.29305 -0.2038,-0.1941 -0.33371,-0.49702 -0.38224,-0.90462 l -1.97488,0.2166 c 0.14558,0.86373 0.47522,1.53391 1.00655,1.98762 0.53135,0.4537 1.20275,0.67527 2.01311,0.67528 1.15489,-1e-5 2.10552,-0.43587 2.82854,-1.2996 0.72301,-0.86375 1.083,-2.27452 1.083,-4.23006 0,-1.90703 -0.35087,-3.27835 -1.04478,-4.1154 -0.6939,-0.83705 -1.58565,-1.24863 -2.6629,-1.24863 z m -0.10193,1.69457 c 0.39305,0 0.75181,0.17362 1.05751,0.53513 0.30571,0.36151 0.45869,0.87689 0.45869,1.54168 0,0.6017 -0.13598,1.05517 -0.40772,1.36331 -0.27174,0.30812 -0.6135,0.47142 -1.00655,0.47142 -0.40761,0 -0.74755,-0.16148 -1.0193,-0.48416 -0.27173,-0.3227 -0.40771,-0.83505 -0.40771,-1.52894 0,-0.6745 0.12991,-1.1565 0.38223,-1.4525 0.25233,-0.296 0.56436,-0.44594 0.94285,-0.44594 z"
       id="path3971-1"
       style="fill:#000000" />
  </g>
  <g
     id="needle01">
    <path
       d="m 160.87965,24.90193 a 8.353855,8.353855 0 0 1 -16.70771,0 8.353855,8.353855 0 1 1 16.70771,0 z"
       id="path3097"
       style="fill:#000000;fill-rule:evenodd;stroke:none" />
    <rect
       width="5.6006098"
       height="57.758698"
       x="149.72549"
       y="32.533279"
       id="rect3867"
       style="fill:#000000;fill-rule:evenodd;stroke:#000000;stroke-width:0.19473362px;stroke-linecap:butt;stroke-linejoin:miter;stroke-opacity:1" />
    <path
       d="m 149.97774,90.67283 2.54806,12.17648 2.55357,-12.17023 z"
       id="path3875"
       style="fill:#000000;fill-opacity:1;stroke:#000000;stroke-width:0.57953435px;stroke-linecap:butt;stroke-linejoin:miter;stroke-opacity:1" />
  </g>
  <rect
     width="43.941635"
     height="46.972092"
     x="15.837983"
     y="19.436584"
     id="lp01"
     style="fill:#ffffff;fill-opacity:1;stroke:#000000;stroke-width:2;stroke-linejoin:round;stroke-miterlimit:4;stroke-opacity:1;stroke-dasharray:none" />
  <g
     id="pb01">
    <rect
       width="43.941635"
       height="46.972092"
       x="73.886475"
       y="11.276421"
       id="lp04-1-2"
       style="fill:#ffffff;fill-opacity:1;stroke:#000000;stroke-width:2;stroke-linejoin:round;stroke-miterlimit:4;stroke-opacity:1;stroke-dasharray:none" />
    <path
       d="m 74.044127,58.356858 6.629126,7.00793 43.661077,-0.23404 -6.53797,-7.08957 -43.815367,0.25254"
       id="path4757"
       style="fill:#b6b6b6;fill-opacity:1;stroke:#000000;stroke-width:2;stroke-linecap:butt;stroke-linejoin:round;stroke-miterlimit:4;stroke-opacity:1;stroke-dasharray:none" />
    <path
       d="m 118.00015,58.333898 -0.17858,-47.09822 6.42858,6.83037 0.0893,47.09821 z"
       id="path4759"
       style="fill:#cccccc;fill-opacity:1;stroke:#000000;stroke-width:2;stroke-linecap:butt;stroke-linejoin:round;stroke-miterlimit:4;stroke-opacity:1;stroke-dasharray:none" />
  </g>
</svg>
